<svg width="507" height="354" viewBox="0 0 507 354" fill="none" xmlns="http://www.w3.org/2000/svg">
<circle cx="254" cy="177" r="170.126" stroke="black" stroke-width="13.7476"/>
<circle cx="254" cy="177" r="139.369" stroke="#67283D" stroke-width="11.2621"/>
<rect width="507" height="167" transform="translate(0 93)" fill="white"/>
<path d="M39.04 132.4C49.8773 132.4 57.8987 134.192 63.104 137.776C68.3947 141.275 71.04 147.504 71.04 156.464C71.04 165.424 68.4373 172.549 63.232 177.84C58.0267 183.045 49.6213 185.648 38.016 185.648H27.264L26.88 213.424L36.864 214.32C36.864 216.709 36.1387 219.269 34.688 222H5.888L5.504 217.648C9.088 216.283 12.7573 215.259 16.512 214.576C16 181.296 15.5733 156.549 15.232 140.336C12.928 139.909 9.17333 138.885 3.968 137.264L4.608 132.4H39.04ZM36.736 177.328C44.0747 177.243 49.664 175.408 53.504 171.824C57.344 168.155 59.264 163.333 59.264 157.36C59.264 151.387 57.3867 147.248 53.632 144.944C49.8773 142.555 43.8613 141.36 35.584 141.36C34.048 141.36 31.4453 141.403 27.776 141.488C27.776 141.573 27.648 153.563 27.392 177.456L36.736 177.328ZM107.801 215.856C114.969 215.856 119.79 213.637 122.265 209.2C124.825 204.677 126.105 198.277 126.105 190C126.105 176.859 123.204 168.624 117.401 165.296C115.012 163.931 111.641 163.248 107.289 163.248C103.022 163.248 98.969 164.144 95.129 165.936C91.7157 172.507 90.009 180.144 90.009 188.848C90.009 197.211 91.1183 203.653 93.337 208.176C95.897 213.296 100.718 215.856 107.801 215.856ZM78.233 190C78.233 179.163 80.7077 170.715 85.657 164.656C90.6063 158.512 98.2437 155.44 108.569 155.44C118.894 155.44 126.361 158.256 130.969 163.888C135.577 169.435 137.881 177.669 137.881 188.592C137.881 199.515 135.406 208.091 130.457 214.32C125.593 220.549 118.169 223.664 108.185 223.664C98.201 223.664 90.6917 220.763 85.657 214.96C80.7077 209.157 78.233 200.837 78.233 190ZM186.404 166.192C185.977 165.765 185.039 165.552 183.588 165.552C182.137 165.552 179.961 166.064 177.06 167.088C174.244 168.112 171.684 169.307 169.38 170.672C168.868 189.616 168.527 203.824 168.356 213.296L179.108 214.32C179.108 216.709 178.383 219.269 176.932 222H147.492L147.108 217.52C151.033 216.155 154.873 215.131 158.628 214.448C158.116 192.773 157.689 176.731 157.348 166.32C152.655 166.064 148.9 165.552 146.084 164.784L146.596 158.128C151.119 156.848 157.817 156.208 166.692 156.208C168.057 158.341 168.911 161.072 169.252 164.4C179.065 158.427 184.911 155.44 186.788 155.44C188.665 155.44 190.841 155.824 193.316 156.592C195.791 157.275 197.625 158.043 198.82 158.896C198.82 167.429 198.009 174.384 196.388 179.76C195.193 180.101 193.785 180.272 192.164 180.272C190.628 180.272 189.561 180.229 188.964 180.144L186.404 166.192ZM214.08 214.064L213.056 165.808H203.2L202.816 161.328C203.669 160.731 206.144 159.621 210.24 158L220.736 141.616C222.443 141.787 223.765 142.213 224.704 142.896L224.576 156.976C230.976 156.976 236.224 157.403 240.32 158.256C240.32 160.56 239.595 163.077 238.144 165.808H224.32C224.149 176.048 223.979 191.579 223.808 212.4C228.587 212.656 233.365 213.509 238.144 214.96L238.016 219.44C236.821 220.208 233.749 221.104 228.8 222.128C223.936 223.152 219.925 223.664 216.768 223.664C216.341 222.981 215.787 221.531 215.104 219.312C214.421 217.008 214.08 215.259 214.08 214.064ZM291.86 146.864L289.812 146.736H289.3L285.332 134.192C283.455 133.851 281.791 133.68 280.34 133.68C276.159 133.68 273.215 135.301 271.508 138.544C269.887 141.787 269.076 147.461 269.076 155.568V157.104H270.996C276.884 157.104 281.407 157.445 284.564 158.128C284.649 158.128 284.82 158.171 285.076 158.256C284.991 160.731 284.265 163.248 282.9 165.808H268.308V213.296H270.228C273.556 213.296 276.5 213.467 279.06 213.808C281.62 214.149 282.985 214.405 283.156 214.576C283.156 216.795 282.431 219.269 280.98 222H247.444L247.06 217.52C250.985 216.155 254.569 215.131 257.812 214.448V165.808H247.956L247.572 161.328C250.644 160.133 254.057 159.195 257.812 158.512V153.264C257.812 143.621 259.604 136.581 263.188 132.144C264.639 130.437 266.687 129.029 269.332 127.92C271.977 126.725 275.049 126.128 278.548 126.128C285.375 126.128 291.86 127.621 298.004 130.608C298.004 135.899 297.492 141.189 296.468 146.48C295.529 146.736 293.993 146.864 291.86 146.864ZM325.801 215.856C332.969 215.856 337.79 213.637 340.265 209.2C342.825 204.677 344.105 198.277 344.105 190C344.105 176.859 341.204 168.624 335.401 165.296C333.012 163.931 329.641 163.248 325.289 163.248C321.022 163.248 316.969 164.144 313.129 165.936C309.716 172.507 308.009 180.144 308.009 188.848C308.009 197.211 309.118 203.653 311.337 208.176C313.897 213.296 318.718 215.856 325.801 215.856ZM296.233 190C296.233 179.163 298.708 170.715 303.657 164.656C308.606 158.512 316.244 155.44 326.569 155.44C336.894 155.44 344.361 158.256 348.969 163.888C353.577 169.435 355.881 177.669 355.881 188.592C355.881 199.515 353.406 208.091 348.457 214.32C343.593 220.549 336.169 223.664 326.185 223.664C316.201 223.664 308.692 220.763 303.657 214.96C298.708 209.157 296.233 200.837 296.233 190ZM382.388 126.896C385.033 126.896 386.911 126.981 388.02 127.152C388.02 130.139 387.465 133.552 386.356 137.392C385.588 187.739 385.204 213.04 385.204 213.296L395.956 214.32C395.956 216.709 395.231 219.269 393.78 222H364.34L363.956 217.52C367.881 216.155 371.721 215.131 375.476 214.448L374.196 137.008C369.503 136.752 365.748 136.24 362.932 135.472L363.444 128.816C367.796 127.536 374.111 126.896 382.388 126.896ZM425.898 144.816C423.679 145.328 421.503 145.584 419.37 145.584C417.322 145.584 415.274 145.456 413.226 145.2C412.714 142.811 412.458 140.421 412.458 138.032C412.458 135.557 412.543 133.723 412.714 132.528C414.591 132.101 416.554 131.888 418.602 131.888C420.735 131.888 422.997 131.973 425.386 132.144C425.898 134.363 426.154 136.539 426.154 138.672C426.154 140.72 426.069 142.768 425.898 144.816ZM402.602 158.256C409.855 156.976 415.487 156.336 419.498 156.336C423.509 156.336 426.069 156.421 427.178 156.592C427.178 158.64 426.922 160.901 426.41 163.376C425.898 165.851 425.599 167.045 425.514 166.96L424.362 213.296L435.114 214.32C435.114 216.709 434.389 219.269 432.938 222H403.498L403.114 217.52C407.039 216.155 410.879 215.131 414.634 214.448C414.122 193.115 413.695 177.115 413.354 166.448C408.405 166.448 404.65 165.936 402.09 164.912L402.602 158.256ZM471.801 215.856C478.969 215.856 483.79 213.637 486.265 209.2C488.825 204.677 490.105 198.277 490.105 190C490.105 176.859 487.204 168.624 481.401 165.296C479.012 163.931 475.641 163.248 471.289 163.248C467.022 163.248 462.969 164.144 459.129 165.936C455.716 172.507 454.009 180.144 454.009 188.848C454.009 197.211 455.118 203.653 457.337 208.176C459.897 213.296 464.718 215.856 471.801 215.856ZM442.233 190C442.233 179.163 444.708 170.715 449.657 164.656C454.606 158.512 462.244 155.44 472.569 155.44C482.894 155.44 490.361 158.256 494.969 163.888C499.577 169.435 501.881 177.669 501.881 188.592C501.881 199.515 499.406 208.091 494.457 214.32C489.593 220.549 482.169 223.664 472.185 223.664C462.201 223.664 454.692 220.763 449.657 214.96C444.708 209.157 442.233 200.837 442.233 190Z" fill="black"/>
</svg>
