<svg width="30" height="32" viewBox="0 0 30 32" fill="none" xmlns="http://www.w3.org/2000/svg">
<path d="M15 17.708C14.6113 17.708 14.285 17.576 14.021 17.312C13.757 17.0487 13.625 16.7223 13.625 16.333V2.292C13.625 1.87533 13.757 1.535 14.021 1.271C14.285 1.007 14.6113 0.875 15 0.875C15.3887 0.875 15.715 1.007 15.979 1.271C16.243 1.535 16.375 1.87533 16.375 2.292V16.333C16.375 16.7223 16.243 17.0487 15.979 17.312C15.715 17.576 15.3887 17.708 15 17.708ZM15 31.042C12.9167 31.042 10.9653 30.646 9.146 29.854C7.32667 29.0627 5.74333 27.9933 4.396 26.646C3.04867 25.2987 1.97933 23.7153 1.188 21.896C0.396 20.0767 0 18.1253 0 16.042C0 14.0973 0.375 12.236 1.125 10.458C1.875 8.68067 2.93067 7.08367 4.292 5.667C4.56933 5.389 4.90933 5.243 5.312 5.229C5.71533 5.215 6.05567 5.347 6.333 5.625C6.611 5.903 6.72933 6.23633 6.688 6.625C6.646 7.01367 6.486 7.347 6.208 7.625C5.12467 8.76367 4.28467 10.0553 3.688 11.5C3.09067 12.9447 2.792 14.4587 2.792 16.042C2.792 19.4587 3.97233 22.3543 6.333 24.729C8.69433 27.1043 11.5833 28.292 15 28.292C18.4167 28.292 21.3057 27.1043 23.667 24.729C26.0277 22.3543 27.208 19.4587 27.208 16.042C27.208 14.4587 26.9093 12.9377 26.312 11.479C25.7153 10.021 24.8753 8.72233 23.792 7.583C23.514 7.30567 23.368 6.97233 23.354 6.583C23.34 6.19433 23.458 5.875 23.708 5.625C24.014 5.347 24.3683 5.222 24.771 5.25C25.1737 5.278 25.5277 5.43067 25.833 5.708C27.1663 7.12467 28.1943 8.722 28.917 10.5C29.639 12.278 30 14.1253 30 16.042C30 18.1253 29.604 20.0767 28.812 21.896C28.0207 23.7153 26.9513 25.2987 25.604 26.646C24.2567 27.9933 22.6733 29.0627 20.854 29.854C19.0347 30.646 17.0833 31.042 15 31.042Z" fill="#1C1B1F"/>
</svg>
